<?xml version="1.0" standalone="no"?>
<!DOCTYPE svg PUBLIC "-//W3C//DTD SVG 20010904//EN"
 "http://www.w3.org/TR/2001/REC-SVG-20010904/DTD/svg10.dtd">
<svg version="1.0" xmlns="http://www.w3.org/2000/svg"
 width="1000.000000pt" height="281.000000pt" viewBox="0 0 1000.000000 281.000000"
 preserveAspectRatio="xMidYMid meet">

<g transform="translate(0.000000,281.000000) scale(0.100000,-0.100000)"
fill="#000000" stroke="none">
<path d="M2713 1956 c-121 -28 -220 -95 -266 -181 -30 -56 -30 -173 1 -231 56
-108 141 -145 414 -179 70 -9 97 -44 62 -79 -33 -33 -144 -10 -144 30 0 12
-30 14 -181 14 l-182 0 6 -54 c19 -187 220 -310 478 -292 263 19 400 126 400
315 0 87 -22 141 -78 191 -63 55 -150 82 -315 99 -95 9 -118 20 -118 57 0 54
103 72 142 24 15 -19 27 -20 188 -20 l173 0 -7 47 c-15 108 -102 202 -225 243
-85 29 -258 36 -348 16z"/>
<path d="M3680 1795 l0 -145 100 0 100 0 0 -320 0 -320 180 0 180 0 0 320 0
320 100 0 100 0 0 145 0 145 -380 0 -380 0 0 -145z"/>
<path d="M4840 1475 l0 -465 375 0 375 0 0 135 0 135 -195 0 -195 0 0 35 0 35
185 0 185 0 0 125 0 125 -185 0 -185 0 0 35 0 35 195 0 195 0 0 135 0 135
-375 0 -375 0 0 -465z"/>
<path d="M5970 1475 l0 -465 185 0 185 0 0 125 c0 80 4 125 10 125 6 0 38 -56
72 -125 l61 -125 184 0 c144 0 183 3 183 13 0 7 -34 77 -76 156 l-76 143 39
33 c21 18 49 54 63 81 22 44 25 61 25 164 0 100 -3 121 -22 156 -48 91 -148
153 -273 173 -36 6 -176 11 -312 11 l-248 0 0 -465z m476 177 c23 -15 34 -50
25 -75 -11 -28 -26 -35 -91 -39 l-45 -3 -3 63 -3 62 53 0 c29 0 58 -4 64 -8z"/>
<path d="M7230 1475 l0 -465 185 0 185 0 0 75 c0 41 -7 121 -15 177 -9 55 -14
102 -12 104 2 2 59 -76 128 -174 l124 -177 153 -3 152 -3 0 466 0 465 -180 0
-180 0 1 -82 c0 -46 6 -126 13 -178 7 -52 12 -96 11 -98 -2 -2 -59 77 -127
175 l-125 178 -156 3 -157 3 0 -466z"/>
</g>
</svg>
